<svg xmlns="http://www.w3.org/2000/svg" xmlns:xlink="http://www.w3.org/1999/xlink" width="160" zoomAndPan="magnify" viewBox="0 0 120 60" height="80" preserveAspectRatio="xMidYMid meet" version="1.0"><defs><g/></defs><g fill="#1a5eb8" fill-opacity="1"><g transform="translate(6.54, 22.385167)"><g><path d="M 10.6875 0 L 9.640625 -3.453125 L 4.359375 -3.453125 L 3.3125 0 L 0 0 L 5.109375 -14.546875 L 8.875 -14.546875 L 14 0 Z M 8.90625 -6.03125 C 7.9375 -9.15625 7.390625 -10.921875 7.265625 -11.328125 C 7.148438 -11.734375 7.0625 -12.054688 7 -12.296875 C 6.789062 -11.453125 6.171875 -9.363281 5.140625 -6.03125 Z M 8.90625 -6.03125 "/></g></g></g><g fill="#1a5eb8" fill-opacity="1"><g transform="translate(20.536422, 22.385167)"><g><path d="M 7.75 -11.28125 C 9.0625 -11.28125 10.085938 -10.769531 10.828125 -9.75 C 11.566406 -8.726562 11.9375 -7.332031 11.9375 -5.5625 C 11.9375 -3.726562 11.550781 -2.304688 10.78125 -1.296875 C 10.019531 -0.296875 8.984375 0.203125 7.671875 0.203125 C 6.367188 0.203125 5.347656 -0.269531 4.609375 -1.21875 L 4.40625 -1.21875 L 3.890625 0 L 1.578125 0 L 1.578125 -15.421875 L 4.609375 -15.421875 L 4.609375 -11.828125 C 4.609375 -11.378906 4.566406 -10.648438 4.484375 -9.640625 L 4.609375 -9.640625 C 5.316406 -10.734375 6.363281 -11.28125 7.75 -11.28125 Z M 6.78125 -8.875 C 6.03125 -8.875 5.484375 -8.644531 5.140625 -8.1875 C 4.796875 -7.726562 4.617188 -6.96875 4.609375 -5.90625 L 4.609375 -5.578125 C 4.609375 -4.390625 4.785156 -3.535156 5.140625 -3.015625 C 5.492188 -2.503906 6.050781 -2.25 6.8125 -2.25 C 7.4375 -2.25 7.929688 -2.535156 8.296875 -3.109375 C 8.660156 -3.679688 8.84375 -4.507812 8.84375 -5.59375 C 8.84375 -6.6875 8.65625 -7.503906 8.28125 -8.046875 C 7.914062 -8.597656 7.414062 -8.875 6.78125 -8.875 Z M 6.78125 -8.875 "/></g></g></g><g fill="#1a5eb8" fill-opacity="1"><g transform="translate(33.373904, 22.385167)"><g><path d="M 7.984375 -12.140625 C 6.828125 -12.140625 5.929688 -11.703125 5.296875 -10.828125 C 4.660156 -9.960938 4.34375 -8.753906 4.34375 -7.203125 C 4.34375 -3.972656 5.554688 -2.359375 7.984375 -2.359375 C 8.992188 -2.359375 10.222656 -2.613281 11.671875 -3.125 L 11.671875 -0.546875 C 10.484375 -0.046875 9.15625 0.203125 7.6875 0.203125 C 5.582031 0.203125 3.96875 -0.4375 2.84375 -1.71875 C 1.726562 -3 1.171875 -4.832031 1.171875 -7.21875 C 1.171875 -8.726562 1.445312 -10.050781 2 -11.1875 C 2.550781 -12.320312 3.335938 -13.191406 4.359375 -13.796875 C 5.390625 -14.398438 6.597656 -14.703125 7.984375 -14.703125 C 9.390625 -14.703125 10.800781 -14.359375 12.21875 -13.671875 L 11.234375 -11.171875 C 10.691406 -11.429688 10.144531 -11.65625 9.59375 -11.84375 C 9.039062 -12.039062 8.503906 -12.140625 7.984375 -12.140625 Z M 7.984375 -12.140625 "/></g></g></g><g fill="#1a5eb8" fill-opacity="1"><g transform="translate(46.300536, 22.385167)"><g/></g></g><g fill="#1a5eb8" fill-opacity="1"><g transform="translate(51.570243, 22.385167)"><g><path d="M 0.8125 -6.671875 L 15.15625 -6.671875 C 14.28125 -6.046875 13.21875 -4.9375 12.46875 -3.890625 L 14.28125 -2.875 C 15.6875 -4.671875 17.765625 -6.515625 19.59375 -7.71875 C 17.765625 -8.90625 15.6875 -10.75 14.28125 -12.546875 L 12.46875 -11.53125 C 13.21875 -10.5 14.28125 -9.375 15.15625 -8.75 L 0.8125 -8.75 Z M 0.8125 -6.671875 "/></g></g></g><g fill="#1a5eb8" fill-opacity="1"><g transform="translate(71.856838, 22.385167)"><g/></g></g><g fill="#1a5eb8" fill-opacity="1"><g transform="translate(77.126546, 22.385167)"><g><path d="M 8.625 0 L 8.03125 -1.5 L 7.953125 -1.5 C 7.441406 -0.863281 6.914062 -0.421875 6.375 -0.171875 C 5.84375 0.078125 5.144531 0.203125 4.28125 0.203125 C 3.21875 0.203125 2.378906 -0.0976562 1.765625 -0.703125 C 1.160156 -1.316406 0.859375 -2.1875 0.859375 -3.3125 C 0.859375 -4.488281 1.265625 -5.351562 2.078125 -5.90625 C 2.898438 -6.46875 4.144531 -6.78125 5.8125 -6.84375 L 7.734375 -6.890625 L 7.734375 -7.390625 C 7.734375 -8.503906 7.15625 -9.0625 6 -9.0625 C 5.113281 -9.0625 4.078125 -8.796875 2.890625 -8.265625 L 1.890625 -10.3125 C 3.160156 -10.976562 4.570312 -11.3125 6.125 -11.3125 C 7.613281 -11.3125 8.753906 -10.984375 9.546875 -10.328125 C 10.335938 -9.679688 10.734375 -8.703125 10.734375 -7.390625 L 10.734375 0 Z M 7.734375 -5.140625 L 6.5625 -5.09375 C 5.6875 -5.0625 5.03125 -4.898438 4.59375 -4.609375 C 4.164062 -4.328125 3.953125 -3.890625 3.953125 -3.296875 C 3.953125 -2.441406 4.441406 -2.015625 5.421875 -2.015625 C 6.117188 -2.015625 6.675781 -2.210938 7.09375 -2.609375 C 7.519531 -3.015625 7.734375 -3.550781 7.734375 -4.21875 Z M 7.734375 -5.140625 "/></g></g></g><g fill="#1a5eb8" fill-opacity="1"><g transform="translate(89.379606, 22.385167)"><g><path d="M 1.828125 -14.484375 L 6.328125 -14.484375 C 8.390625 -14.484375 9.882812 -14.191406 10.8125 -13.609375 C 11.738281 -13.023438 12.203125 -12.097656 12.203125 -10.828125 C 12.203125 -9.960938 12 -9.25 11.59375 -8.6875 C 11.1875 -8.132812 10.644531 -7.800781 9.96875 -7.6875 L 9.96875 -7.59375 C 10.882812 -7.382812 11.546875 -7 11.953125 -6.4375 C 12.359375 -5.875 12.5625 -5.128906 12.5625 -4.203125 C 12.5625 -2.878906 12.082031 -1.847656 11.125 -1.109375 C 10.175781 -0.367188 8.882812 0 7.25 0 L 1.828125 0 Z M 4.890625 -8.75 L 6.6875 -8.75 C 7.507812 -8.75 8.109375 -8.878906 8.484375 -9.140625 C 8.859375 -9.398438 9.046875 -9.828125 9.046875 -10.421875 C 9.046875 -10.972656 8.84375 -11.367188 8.4375 -11.609375 C 8.03125 -11.847656 7.390625 -11.96875 6.515625 -11.96875 L 4.890625 -11.96875 Z M 4.890625 -6.3125 L 4.890625 -2.53125 L 6.890625 -2.53125 C 7.742188 -2.53125 8.367188 -2.691406 8.765625 -3.015625 C 9.171875 -3.347656 9.375 -3.847656 9.375 -4.515625 C 9.375 -5.710938 8.515625 -6.3125 6.796875 -6.3125 Z M 4.890625 -6.3125 "/></g></g></g><g fill="#1a5eb8" fill-opacity="1"><g transform="translate(103.009525, 22.385167)"><g><path d="M 6.078125 0.203125 C 2.628906 0.203125 0.90625 -1.691406 0.90625 -5.484375 C 0.90625 -7.367188 1.375 -8.804688 2.3125 -9.796875 C 3.25 -10.785156 4.597656 -11.28125 6.359375 -11.28125 C 7.640625 -11.28125 8.785156 -11.03125 9.796875 -10.53125 L 8.90625 -8.203125 C 8.4375 -8.390625 7.992188 -8.539062 7.578125 -8.65625 C 7.171875 -8.78125 6.765625 -8.84375 6.359375 -8.84375 C 4.785156 -8.84375 4 -7.726562 4 -5.5 C 4 -3.332031 4.785156 -2.25 6.359375 -2.25 C 6.929688 -2.25 7.46875 -2.328125 7.96875 -2.484375 C 8.46875 -2.640625 8.960938 -2.882812 9.453125 -3.21875 L 9.453125 -0.625 C 8.960938 -0.3125 8.46875 -0.0976562 7.96875 0.015625 C 7.46875 0.140625 6.835938 0.203125 6.078125 0.203125 Z M 6.078125 0.203125 "/></g></g></g><g fill="#1a5eb8" fill-opacity="1"><g transform="translate(6.54, 49.037084)"><g><path d="M 10.6875 0 L 9.640625 -3.453125 L 4.359375 -3.453125 L 3.3125 0 L 0 0 L 5.109375 -14.546875 L 8.875 -14.546875 L 14 0 Z M 8.90625 -6.03125 C 7.9375 -9.15625 7.390625 -10.921875 7.265625 -11.328125 C 7.148438 -11.734375 7.0625 -12.054688 7 -12.296875 C 6.789062 -11.453125 6.171875 -9.363281 5.140625 -6.03125 Z M 8.90625 -6.03125 "/></g></g></g><g fill="#1a5eb8" fill-opacity="1"><g transform="translate(20.536422, 49.037084)"><g><path d="M 1.828125 -14.484375 L 6.328125 -14.484375 C 8.390625 -14.484375 9.882812 -14.191406 10.8125 -13.609375 C 11.738281 -13.023438 12.203125 -12.097656 12.203125 -10.828125 C 12.203125 -9.960938 12 -9.25 11.59375 -8.6875 C 11.1875 -8.132812 10.644531 -7.800781 9.96875 -7.6875 L 9.96875 -7.59375 C 10.882812 -7.382812 11.546875 -7 11.953125 -6.4375 C 12.359375 -5.875 12.5625 -5.128906 12.5625 -4.203125 C 12.5625 -2.878906 12.082031 -1.847656 11.125 -1.109375 C 10.175781 -0.367188 8.882812 0 7.25 0 L 1.828125 0 Z M 4.890625 -8.75 L 6.6875 -8.75 C 7.507812 -8.75 8.109375 -8.878906 8.484375 -9.140625 C 8.859375 -9.398438 9.046875 -9.828125 9.046875 -10.421875 C 9.046875 -10.972656 8.84375 -11.367188 8.4375 -11.609375 C 8.03125 -11.847656 7.390625 -11.96875 6.515625 -11.96875 L 4.890625 -11.96875 Z M 4.890625 -6.3125 L 4.890625 -2.53125 L 6.890625 -2.53125 C 7.742188 -2.53125 8.367188 -2.691406 8.765625 -3.015625 C 9.171875 -3.347656 9.375 -3.847656 9.375 -4.515625 C 9.375 -5.710938 8.515625 -6.3125 6.796875 -6.3125 Z M 4.890625 -6.3125 "/></g></g></g><g fill="#1a5eb8" fill-opacity="1"><g transform="translate(34.166341, 49.037084)"><g><path d="M 7.984375 -12.140625 C 6.828125 -12.140625 5.929688 -11.703125 5.296875 -10.828125 C 4.660156 -9.960938 4.34375 -8.753906 4.34375 -7.203125 C 4.34375 -3.972656 5.554688 -2.359375 7.984375 -2.359375 C 8.992188 -2.359375 10.222656 -2.613281 11.671875 -3.125 L 11.671875 -0.546875 C 10.484375 -0.046875 9.15625 0.203125 7.6875 0.203125 C 5.582031 0.203125 3.96875 -0.4375 2.84375 -1.71875 C 1.726562 -3 1.171875 -4.832031 1.171875 -7.21875 C 1.171875 -8.726562 1.445312 -10.050781 2 -11.1875 C 2.550781 -12.320312 3.335938 -13.191406 4.359375 -13.796875 C 5.390625 -14.398438 6.597656 -14.703125 7.984375 -14.703125 C 9.390625 -14.703125 10.800781 -14.359375 12.21875 -13.671875 L 11.234375 -11.171875 C 10.691406 -11.429688 10.144531 -11.65625 9.59375 -11.84375 C 9.039062 -12.039062 8.503906 -12.140625 7.984375 -12.140625 Z M 7.984375 -12.140625 "/></g></g></g><g fill="#1a5eb8" fill-opacity="1"><g transform="translate(47.092973, 49.037084)"><g/></g></g><g fill="#1a5eb8" fill-opacity="1"><g transform="translate(52.36268, 49.037084)"><g><path d="M 19.484375 -6.671875 L 19.484375 -8.75 L 5.140625 -8.75 C 6.015625 -9.375 7.078125 -10.5 7.828125 -11.53125 L 6.015625 -12.546875 C 4.609375 -10.75 2.53125 -8.90625 0.703125 -7.71875 C 2.53125 -6.515625 4.609375 -4.671875 6.015625 -2.875 L 7.828125 -3.890625 C 7.078125 -4.9375 6.015625 -6.046875 5.140625 -6.671875 Z M 19.484375 -6.671875 "/></g></g></g><g fill="#1a5eb8" fill-opacity="1"><g transform="translate(72.649276, 49.037084)"><g/></g></g><g fill="#1a5eb8" fill-opacity="1"><g transform="translate(77.918983, 49.037084)"><g><path d="M 8.625 0 L 8.03125 -1.5 L 7.953125 -1.5 C 7.441406 -0.863281 6.914062 -0.421875 6.375 -0.171875 C 5.84375 0.078125 5.144531 0.203125 4.28125 0.203125 C 3.21875 0.203125 2.378906 -0.0976562 1.765625 -0.703125 C 1.160156 -1.316406 0.859375 -2.1875 0.859375 -3.3125 C 0.859375 -4.488281 1.265625 -5.351562 2.078125 -5.90625 C 2.898438 -6.46875 4.144531 -6.78125 5.8125 -6.84375 L 7.734375 -6.890625 L 7.734375 -7.390625 C 7.734375 -8.503906 7.15625 -9.0625 6 -9.0625 C 5.113281 -9.0625 4.078125 -8.796875 2.890625 -8.265625 L 1.890625 -10.3125 C 3.160156 -10.976562 4.570312 -11.3125 6.125 -11.3125 C 7.613281 -11.3125 8.753906 -10.984375 9.546875 -10.328125 C 10.335938 -9.679688 10.734375 -8.703125 10.734375 -7.390625 L 10.734375 0 Z M 7.734375 -5.140625 L 6.5625 -5.09375 C 5.6875 -5.0625 5.03125 -4.898438 4.59375 -4.609375 C 4.164062 -4.328125 3.953125 -3.890625 3.953125 -3.296875 C 3.953125 -2.441406 4.441406 -2.015625 5.421875 -2.015625 C 6.117188 -2.015625 6.675781 -2.210938 7.09375 -2.609375 C 7.519531 -3.015625 7.734375 -3.550781 7.734375 -4.21875 Z M 7.734375 -5.140625 "/></g></g></g><g fill="#1a5eb8" fill-opacity="1"><g transform="translate(90.172043, 49.037084)"><g><path d="M 7.75 -11.28125 C 9.0625 -11.28125 10.085938 -10.769531 10.828125 -9.75 C 11.566406 -8.726562 11.9375 -7.332031 11.9375 -5.5625 C 11.9375 -3.726562 11.550781 -2.304688 10.78125 -1.296875 C 10.019531 -0.296875 8.984375 0.203125 7.671875 0.203125 C 6.367188 0.203125 5.347656 -0.269531 4.609375 -1.21875 L 4.40625 -1.21875 L 3.890625 0 L 1.578125 0 L 1.578125 -15.421875 L 4.609375 -15.421875 L 4.609375 -11.828125 C 4.609375 -11.378906 4.566406 -10.648438 4.484375 -9.640625 L 4.609375 -9.640625 C 5.316406 -10.734375 6.363281 -11.28125 7.75 -11.28125 Z M 6.78125 -8.875 C 6.03125 -8.875 5.484375 -8.644531 5.140625 -8.1875 C 4.796875 -7.726562 4.617188 -6.96875 4.609375 -5.90625 L 4.609375 -5.578125 C 4.609375 -4.390625 4.785156 -3.535156 5.140625 -3.015625 C 5.492188 -2.503906 6.050781 -2.25 6.8125 -2.25 C 7.4375 -2.25 7.929688 -2.535156 8.296875 -3.109375 C 8.660156 -3.679688 8.84375 -4.507812 8.84375 -5.59375 C 8.84375 -6.6875 8.65625 -7.503906 8.28125 -8.046875 C 7.914062 -8.597656 7.414062 -8.875 6.78125 -8.875 Z M 6.78125 -8.875 "/></g></g></g><g fill="#1a5eb8" fill-opacity="1"><g transform="translate(103.009526, 49.037084)"><g><path d="M 6.078125 0.203125 C 2.628906 0.203125 0.90625 -1.691406 0.90625 -5.484375 C 0.90625 -7.367188 1.375 -8.804688 2.3125 -9.796875 C 3.25 -10.785156 4.597656 -11.28125 6.359375 -11.28125 C 7.640625 -11.28125 8.785156 -11.03125 9.796875 -10.53125 L 8.90625 -8.203125 C 8.4375 -8.390625 7.992188 -8.539062 7.578125 -8.65625 C 7.171875 -8.78125 6.765625 -8.84375 6.359375 -8.84375 C 4.785156 -8.84375 4 -7.726562 4 -5.5 C 4 -3.332031 4.785156 -2.25 6.359375 -2.25 C 6.929688 -2.25 7.46875 -2.328125 7.96875 -2.484375 C 8.46875 -2.640625 8.960938 -2.882812 9.453125 -3.21875 L 9.453125 -0.625 C 8.960938 -0.3125 8.46875 -0.0976562 7.96875 0.015625 C 7.46875 0.140625 6.835938 0.203125 6.078125 0.203125 Z M 6.078125 0.203125 "/></g></g></g></svg>